<svg preserveAspectRatio="none" width="100%" height="100%" overflow="visible" style="display: block;" viewBox="0 0 38.0032 37.256" fill="none" xmlns="http://www.w3.org/2000/svg">
<path id="Fill-1" fill-rule="evenodd" clip-rule="evenodd" d="M2.61636 35.256L12.5274 23.409L15.4634 26.607L19.0014 23.268L22.5394 26.607L25.4764 23.409L35.3864 35.256H2.61636ZM19.6884 21.165C19.6454 21.125 19.5914 21.107 19.5434 21.075C19.4884 21.038 19.4364 20.995 19.3744 20.971C19.3154 20.946 19.2524 20.942 19.1904 20.929C19.1264 20.917 19.0664 20.899 19.0014 20.899C18.9374 20.899 18.8764 20.917 18.8134 20.929C18.7504 20.942 18.6884 20.946 18.6284 20.971C18.5674 20.995 18.5154 21.038 18.4594 21.075C18.4114 21.107 18.3584 21.125 18.3154 21.165L15.5654 23.761L13.8224 21.862L19.0014 15.67L24.1814 21.862L22.4384 23.761L19.6884 21.165ZM8.51136 8.006L9.90436 5.003L8.51236 2H18.0014V2.232V8.006H8.51136ZM37.6594 34.857L20.0014 13.748V10.006V2.232V1.403C20.0014 0.63 19.3704 0 18.5964 0H7.33436C6.90536 0 6.51136 0.216 6.28136 0.578C6.05136 0.94 6.02236 1.386 6.20136 1.772L7.69936 5.003L6.20136 8.234C6.02236 8.621 6.05136 9.069 6.28236 9.429C6.51236 9.79 6.90636 10.006 7.33436 10.006H18.0014V13.748L0.343363 34.856C-0.0246372 35.296 -0.103637 35.892 0.139363 36.411C0.382363 36.933 0.891363 37.256 1.46636 37.256H36.5364C37.1124 37.256 37.6204 36.933 37.8644 36.411C38.1064 35.892 38.0284 35.296 37.6594 34.857Z" fill="var(--fill-0, #0075BE)"/>
</svg>
