<svg preserveAspectRatio="none" width="100%" height="100%" overflow="visible" style="display: block;" viewBox="0 0 40 37" fill="none" xmlns="http://www.w3.org/2000/svg">
<path id="Shape" d="M33.8291 11.3866H27.7759V7.32316C27.9688 4.97428 27.0175 2.67905 25.2327 1.18732C23.3548 -0.015136 21.0579 -0.321716 18.9411 0.347541C18.0018 0.654169 17.3643 1.54702 17.3649 2.55536V8.71828C17.3649 12.0232 13.8283 13.4996 12.9011 13.8382C12.4225 13.5536 11.8786 13.404 11.3249 13.4048H3.16568C1.41732 13.4048 0 14.8542 0 16.642V33.2074C0 34.9953 1.41732 36.4447 3.16568 36.4447H11.3117C11.8635 36.444 12.4059 36.2995 12.8879 36.0248C13.87 36.6625 15.0094 37.0008 16.1728 37H30.9283C34.902 37 37.5511 34.738 38.0279 30.9861L39.9883 18.1455C40.0039 18.006 40.0039 17.8651 39.9883 17.7256C39.9811 14.2435 37.2341 11.4163 33.8291 11.3866ZM2.64911 33.2074V16.642C2.64911 16.3503 2.88038 16.1138 3.16568 16.1138H11.0203V33.7221H3.16568C3.02991 33.7258 2.89846 33.6732 2.80118 33.5763C2.7039 33.4793 2.64911 33.3463 2.64911 33.2074ZM23.6698 3.36805C24.7495 4.36984 25.2918 5.84184 25.1268 7.32316V12.7411C25.1268 13.4892 25.7198 14.0956 26.4513 14.0956H33.8291C35.7663 14.0951 37.3489 15.6774 37.3921 17.6579L35.4053 30.6068C35.0344 33.6544 32.7562 34.291 30.9283 34.291H16.1728C15.2647 34.2893 14.392 33.9304 13.7356 33.2887H13.6694V16.4253C15.0734 15.9377 20.014 13.8789 20.014 8.71828V2.86689C21.2493 2.53032 22.5648 2.71066 23.6698 3.36805ZM7.28504 18.0372C8.38234 18.0372 9.27187 18.9468 9.27187 20.0689C9.27187 21.191 8.38234 22.1006 7.28504 22.1006C6.18775 22.1006 5.29821 21.191 5.29821 20.0689C5.29821 18.9468 6.18775 18.0372 7.28504 18.0372Z" fill="var(--fill-0, #0075BE)"/>
</svg>
