<svg preserveAspectRatio="none" width="100%" height="100%" overflow="visible" style="display: block;" viewBox="0 0 39 37" fill="none" xmlns="http://www.w3.org/2000/svg">
<path id="Shape" d="M28.6602 31.0781L24.4095 28.8004C24.0522 28.6049 23.8286 28.2322 23.8251 27.8258V26.3109L23.8995 26.2155L24.1651 25.8236L24.3351 25.5375C24.452 25.3469 24.5796 25.1244 24.7071 24.8701C24.8346 24.6159 24.8452 24.5947 24.9409 24.3934L25.0259 24.1921V24.065L25.1003 23.8849C25.1499 23.7507 25.203 23.6024 25.2597 23.44V23.3128L25.3553 23.0056C25.8122 22.6299 26.0771 22.0706 26.0779 21.4801V19.5733C26.0781 19.1026 25.9084 18.6476 25.5997 18.2914V15.7913C25.605 15.7526 25.605 15.7134 25.5997 15.6747C25.6465 14.5794 25.2656 13.5086 24.5371 12.6873C23.2657 11.4566 21.5203 10.838 19.755 10.9923H19.0218C17.2535 10.8391 15.5053 11.4574 14.2292 12.6873C13.5006 13.5086 13.1197 14.5794 13.1665 15.6747C13.1607 15.7098 13.1607 15.7456 13.1665 15.7807V18.2702C12.9283 18.6604 12.8343 19.1213 12.9008 19.5733V21.4483C12.9012 22.0412 13.1708 22.6021 13.6341 22.9738C13.6545 23.0598 13.6793 23.1447 13.7084 23.2281L13.7616 23.4082C13.8032 23.5591 13.8528 23.7076 13.9104 23.8531L14.1441 24.4146C14.2079 24.5629 14.2823 24.7006 14.346 24.8489C14.4098 24.9973 14.6011 25.3151 14.7286 25.5269L14.8986 25.8024L15.1749 26.1944L15.2599 26.2897V27.8046C15.252 28.2126 15.0247 28.5848 14.6648 28.7792L10.4142 31.0569C8.99795 31.8099 8.11487 33.2812 8.11879 34.8812V35.9406C8.11879 36.5257 8.59457 37 9.18147 37C9.76837 37 10.2441 36.5257 10.2441 35.9406V34.8812C10.2449 34.0612 10.6982 33.308 11.4237 32.9214L15.6744 30.6437C16.71 30.0809 17.3571 29.0016 17.364 27.8258V25.9295C17.3641 25.677 17.2736 25.4328 17.109 25.2409L17.0027 25.1244L16.939 25.0396L16.8858 24.9655L16.652 24.6265L16.5245 24.404C16.4289 24.2451 16.3226 24.065 16.227 23.8743L16.0357 23.4929L15.8763 23.0904C15.8763 22.9844 15.8019 22.8679 15.7275 22.656C15.6531 22.4442 15.6531 22.4018 15.6213 22.2641V22.084C15.5608 21.814 15.3968 21.5782 15.1643 21.4272L15.0474 21.3636V19.5733L15.1643 19.4673C15.3936 19.2665 15.5252 18.9771 15.5256 18.6728V15.6324C15.5308 15.576 15.5308 15.5192 15.5256 15.4629C15.5319 14.959 15.712 14.4727 16.0357 14.0857C16.9311 13.3604 18.0744 13.0109 19.2237 13.1111H19.9569C21.1066 13.0075 22.2512 13.3574 23.145 14.0857C23.4718 14.4667 23.6526 14.9509 23.655 15.4523C23.6499 15.5122 23.6499 15.5724 23.655 15.6324V18.7152C23.6554 19.0194 23.787 19.3089 24.0163 19.5097L24.1332 19.6156V21.353L24.027 21.4166C23.7905 21.5656 23.6224 21.8016 23.5594 22.0734V22.2535C23.5317 22.3826 23.4962 22.51 23.4531 22.6348V22.7408C23.4531 22.8573 23.3787 22.9739 23.3362 23.0904L23.2831 23.2281L24.2501 23.6519L23.1875 23.3446L23.1025 23.5353C23.0593 23.6476 23.0096 23.7572 22.9537 23.8637C22.8474 24.065 22.7518 24.2451 22.6455 24.4146L22.518 24.6159C22.433 24.7536 22.3586 24.8595 22.2948 24.9443L22.2204 25.0608L22.1673 25.1138L22.0717 25.2197C21.9109 25.4131 21.8243 25.6572 21.8272 25.9083V27.794C21.8167 28.9829 22.4727 30.0783 23.5275 30.6331L27.7782 32.9108C28.502 33.2992 28.9547 34.0512 28.9578 34.8707V35.93C28.9578 36.5151 29.4335 36.9894 30.0204 36.9894C30.6073 36.9894 31.0831 36.5151 31.0831 35.93V34.8707C31.0458 33.2557 30.1125 31.7947 28.6602 31.0781ZM37.3635 28.0483L34.7918 26.6711C34.708 26.6229 34.6556 26.5345 34.6537 26.438V25.6647C34.7117 25.5904 34.7649 25.5126 34.8131 25.4316L34.93 25.2409C35.015 25.1138 35.0894 24.9655 35.1744 24.8066L35.3232 24.4994L35.4613 24.1709L35.5888 23.7896C35.5842 23.7651 35.5842 23.7399 35.5888 23.7154C35.9025 23.4128 36.079 22.9959 36.0777 22.5607V21.4166C36.0774 21.0875 35.9774 20.7663 35.7907 20.4949V19.0859C35.8281 18.3121 35.5655 17.5535 35.0575 16.9672C34.2159 16.1343 33.0517 15.7087 31.8695 15.8019H31.4232C30.2417 15.7144 29.0798 16.1391 28.2351 16.9672C27.7318 17.5562 27.47 18.3128 27.5019 19.0859C27.4969 19.1068 27.4969 19.1286 27.5019 19.1495V20.4949C27.3108 20.7641 27.2103 21.0868 27.215 21.4166V22.5501C27.2124 22.9855 27.3891 23.4029 27.7038 23.7048C27.7086 23.7435 27.7086 23.7827 27.7038 23.8214C27.7038 23.9273 27.7782 24.0226 27.8101 24.118L27.9589 24.4782L28.0864 24.7536L28.3414 25.2091L28.4477 25.3786L28.6071 25.6117V26.385C28.6051 26.4815 28.5527 26.5699 28.4689 26.6181L27.7357 27.0101C27.2192 27.288 27.0265 27.9307 27.3053 28.4455C27.5841 28.9604 28.2288 29.1525 28.7452 28.8746L29.4785 28.4826C30.258 28.0626 30.7406 27.2472 30.7324 26.3639V25.2939C30.7113 25.0069 30.5954 24.735 30.403 24.5205V24.4464C30.3531 24.3919 30.3102 24.3314 30.2755 24.2663L30.1905 24.1392C30.1905 24.0544 30.0842 23.9485 30.0311 23.8425L29.9567 23.6942L29.8929 23.5565L29.8398 23.4082L29.7548 23.1751C29.7499 23.1046 29.7499 23.0338 29.7548 22.9633V22.8467C29.7067 22.6298 29.5915 22.4333 29.4253 22.2853V21.692C29.6113 21.494 29.714 21.2323 29.7123 20.961V19.033C29.7175 18.9908 29.7175 18.9481 29.7123 18.9058C29.7221 18.7125 29.7927 18.5272 29.9142 18.3762C30.3743 18.0158 30.959 17.8519 31.5401 17.9206H31.9864C32.5641 17.8525 33.1453 18.0164 33.6016 18.3762C33.7471 18.5425 33.8198 18.7599 33.8035 18.98C33.7983 19.0328 33.7983 19.0861 33.8035 19.1389V20.9081C33.8018 21.1794 33.9045 21.441 34.0905 21.639V22.2853C33.9204 22.4318 33.8013 22.6284 33.7504 22.8467V22.9633C33.7504 23.0374 33.7504 23.101 33.6866 23.2281L33.6123 23.4188L34.6112 23.7896L33.5485 23.5565L34.5368 23.9485L33.4741 23.6624L33.3041 23.8108L33.1341 24.1074L33.049 24.2345C33.0143 24.2996 32.9714 24.3601 32.9215 24.4146L33.7929 25.0396L33.049 24.6159L32.8896 24.4782L32.794 24.5735C32.6332 24.7669 32.5466 25.0109 32.5496 25.2621V26.3956C32.5415 27.279 33.024 28.0943 33.8035 28.5144L36.3752 29.8916C36.6795 30.0565 36.8706 30.3726 36.8747 30.7179C36.8747 31.303 37.3504 31.7773 37.9373 31.7773C38.5242 31.7773 39 31.303 39 30.7179C38.9862 29.5964 38.3583 28.5721 37.3635 28.0483ZM9.38338 18.98C9.38338 18.98 9.38338 19.0859 9.38338 19.1389V20.9081C9.3816 21.1794 9.4843 21.441 9.6703 21.639V22.2853C9.50415 22.4333 9.3889 22.6298 9.34087 22.8467V22.9633C9.34087 23.0374 9.34087 23.101 9.26648 23.2281L9.20272 23.4082V23.5459L10.1804 23.9485L9.11771 23.6624L8.96894 23.8108C8.91934 23.9167 8.86621 24.012 8.80954 24.0968L8.73515 24.2133C8.69276 24.2828 8.64664 24.35 8.597 24.4146L8.53324 24.4782C8.37246 24.6716 8.28584 24.9156 8.28883 25.1668V26.3003C8.28069 27.1836 8.76326 27.999 9.54278 28.419L10.276 28.811C10.6101 28.9908 11.015 28.9792 11.3383 28.7807C11.6615 28.5821 11.8539 28.2268 11.843 27.8484C11.8322 27.4701 11.6197 27.1263 11.2856 26.9465L10.5523 26.5545C10.4685 26.5063 10.4161 26.4179 10.4142 26.3215V25.5481L10.5736 25.3045L10.6586 25.1668C10.733 25.0396 10.818 24.8913 10.903 24.7218L11.0411 24.4358L11.1793 24.0968C11.1793 24.0014 11.2537 23.9061 11.3068 23.7154C11.3114 23.6909 11.3114 23.6658 11.3068 23.6413C11.6248 23.3416 11.8021 22.9227 11.7956 22.4865V21.4166C11.7989 21.087 11.6985 20.7647 11.5087 20.4949V19.1601C11.5087 19.1601 11.5087 19.1071 11.5087 19.0859C11.5407 18.3128 11.2788 17.5562 10.7755 16.9672C9.93077 16.1391 8.7689 15.7144 7.58747 15.8019H7.14114C5.95892 15.7087 4.79475 16.1343 3.95313 16.9672C3.44508 17.5535 3.18256 18.3121 3.21989 19.0859V20.4949C3.03321 20.7663 2.93319 21.0875 2.93297 21.4166V22.5501C2.93635 22.9843 3.11212 23.3995 3.4218 23.7048C3.41702 23.7435 3.41702 23.7827 3.4218 23.8214L3.51744 24.118L3.67684 24.4782L3.80436 24.7536C3.87875 24.9125 3.96376 25.0608 4.03815 25.1879L4.14441 25.3574L4.30381 25.5905V26.3639C4.30188 26.4603 4.24948 26.5487 4.16567 26.5969L1.61526 28.0483C0.621962 28.5814 0.00181255 29.6145 0 30.7391C0 31.3242 0.475774 31.7985 1.06267 31.7985C1.64957 31.7985 2.12534 31.3242 2.12534 30.7391C2.12945 30.3938 2.3205 30.0777 2.6248 29.9128L5.19646 28.5356C5.97598 28.1155 6.45854 27.3002 6.45041 26.4168V25.2939C6.42564 25.0129 6.31428 24.7465 6.13161 24.5311L6.00409 24.351C6.00788 24.3229 6.00788 24.2944 6.00409 24.2663L5.67466 23.8108V23.6942V23.5565L5.6109 23.4082C5.58162 23.332 5.55679 23.2542 5.53651 23.1751L5.47275 22.9633V22.8467C5.42183 22.6284 5.30277 22.4318 5.1327 22.2853V21.692C5.3187 21.494 5.4214 21.2323 5.41962 20.961V18.9058C5.41933 18.7105 5.49121 18.522 5.62153 18.3762C6.07783 18.0164 6.65904 17.8525 7.23678 17.9206H7.68311C8.26419 17.8519 8.84888 18.0158 9.30899 18.3762C9.40507 18.5622 9.43145 18.7763 9.38338 18.98ZM5.07956 11.4584C5.2094 11.5179 5.35118 11.5469 5.49401 11.5432C5.92043 11.5428 6.30535 11.2884 6.47166 10.897C8.69443 5.66013 13.8085 2.22498 19.5119 2.13783C25.2152 2.05067 30.4325 5.32794 32.8153 10.4944C32.9484 10.8741 33.2857 11.1459 33.6861 11.196C34.0864 11.246 34.4806 11.0658 34.7038 10.7307C34.9269 10.3956 34.9404 9.96343 34.7387 9.61511C32.0159 3.68079 26.0341 -0.0901335 19.4889 0.00163812C12.9437 0.0934098 7.0706 4.03055 4.51635 10.0389C4.39647 10.3009 4.38878 10.6003 4.49503 10.8681C4.60128 11.1359 4.81233 11.349 5.07956 11.4584Z" fill="var(--fill-0, #0075BE)"/>
</svg>
