<svg width="159" height="80" viewBox="0 0 159 80" fill="none" xmlns="http://www.w3.org/2000/svg">
<g clip-path="url(#clip0_3_2461)">
<path d="M32.4162 35.4553C32.4162 37.6048 31.42 38.7938 28.8022 38.7938H26.5724V32.2139C26.8562 32.191 27.806 32.1681 28.0898 32.1681H28.8543C31.5301 32.1681 32.4162 33.2886 32.4162 35.4553ZM37.762 43.9961C37.762 40.6061 34.9588 39.3827 31.5648 39.3026V39.1769C34.4491 38.9482 36.8295 37.7534 36.8295 34.8722C36.8295 31.6651 34.1422 31.0648 31.1363 31.0648C27.5222 31.0648 23.2827 31.162 19.6802 31.0648V32.1681C20.439 32.1167 22.2865 32.2196 22.2865 33.1629V46.8373C22.2865 47.752 20.3868 47.8777 19.6802 47.8777V48.9525C23.1668 48.861 27.2963 48.9525 30.7945 48.9525C34.4781 48.9525 37.762 47.7291 37.762 44.0018V43.9961ZM33.146 43.6474C33.146 46.4543 32.1556 47.7806 28.7153 47.7806H26.5724V39.9429H28.8543C31.9818 39.9429 33.146 40.9891 33.146 43.6474Z" fill="#0079C1"/>
<path d="M61.0736 48.9182C59.452 48.9182 57.8361 48.901 56.2202 48.9467V47.8491C56.9557 47.8491 59.0002 47.8091 59.0002 46.8316V34.1518H58.9423L51.6331 49.1868H50.747L43.6174 34.1233H43.5595V46.8316C43.5595 47.832 45.5808 47.8491 46.3511 47.8491L46.3801 48.9467C44.3587 48.8839 41.6077 48.8381 39.6211 48.9467V47.8491C40.3914 47.8491 42.1289 47.7862 42.1289 46.8316V33.1743C42.1289 32.2367 40.3335 32.1624 39.6211 32.1624L39.5922 31.0591C41.8973 31.1563 44.3645 31.1563 46.6638 31.0591L52.7857 43.7274L59.0234 31.0819C61.2358 31.1791 63.7378 31.1505 65.9503 31.0591V32.1624C65.2147 32.1624 63.2861 32.2139 63.2861 33.1743V46.8316C63.2861 47.8091 65.1916 47.8491 65.9503 47.8491V48.9467C64.3344 48.901 62.6895 48.9182 61.0736 48.9182Z" fill="#0079C1"/>
<path d="M82.9895 39.9829C82.9895 43.3901 82.6478 48.1521 77.5221 48.1521C72.3965 48.1521 72.02 43.3901 72.02 39.9829C72.02 36.5757 72.3907 31.848 77.5221 31.848C82.6536 31.848 82.9895 36.6043 82.9895 39.9829ZM87.7851 39.9829C87.7851 34.0661 84.1247 30.7446 77.5164 30.7446C70.908 30.7446 67.2129 34.0318 67.2129 39.9829C67.2129 45.934 70.8733 49.244 77.5164 49.244C84.1595 49.244 87.7851 45.934 87.7851 39.9829Z" fill="#0079C1"/>
<path d="M118.475 19.4198C106.967 19.4198 97.6252 28.6352 97.6252 40C97.6252 51.3649 106.961 60.5803 118.475 60.5803C129.989 60.5803 139.326 51.3706 139.326 40C139.326 28.6295 129.989 19.4198 118.475 19.4198Z" fill="#ED1C24"/>
<path d="M117.838 33.7231L114.218 29.0639C114.074 28.8753 113.842 28.7495 113.576 28.7495C113.309 28.7495 113.095 28.8638 112.944 29.0468L108.635 34.4091V42.807L112.921 37.3875C113.072 37.1988 113.309 37.0731 113.576 37.0731C113.842 37.0731 114.085 37.1988 114.236 37.3932L117.873 42.0867C118.012 42.2639 118.232 42.3839 118.475 42.3839C118.719 42.3839 118.939 42.2639 119.078 42.0867L122.715 37.3932C122.866 37.1988 123.103 37.0731 123.375 37.0731C123.647 37.0731 123.879 37.1988 124.03 37.3875L128.316 42.807V34.4091L124.006 29.0468C123.862 28.8638 123.63 28.7495 123.375 28.7495C123.12 28.7495 122.877 28.8753 122.732 29.0639L119.112 33.7231C118.968 33.9117 118.736 34.0318 118.475 34.0318C118.215 34.0318 117.983 33.9117 117.838 33.7231ZM128.316 48.9696H108.641V42.8127H128.316V48.9696Z" fill="white"/>
</g>
<defs>
<clipPath id="clip0_3_2461">
<rect width="159" height="80" fill="white"/>
</clipPath>
</defs>
</svg>
