<svg width="159" height="80" viewBox="0 0 159 80" fill="none" xmlns="http://www.w3.org/2000/svg">
<g clip-path="url(#clip0_131_6539)">
<path d="M32.4162 35.4552C32.4162 37.6047 31.42 38.7938 28.8022 38.7938H26.5724V32.2138C26.8562 32.1909 27.806 32.1681 28.0898 32.1681H28.8543C31.5301 32.1681 32.4162 33.2885 32.4162 35.4552ZM37.762 43.996C37.762 40.606 34.9588 39.3826 31.5648 39.3025V39.1768C34.4491 38.9481 36.8295 37.7533 36.8295 34.8721C36.8295 31.665 34.1422 31.0647 31.1363 31.0647C27.5222 31.0647 23.2827 31.1619 19.6802 31.0647V32.1681C20.439 32.1166 22.2865 32.2195 22.2865 33.1628V46.8372C22.2865 47.7519 20.3868 47.8776 19.6802 47.8776V48.9524C23.1668 48.8609 27.2963 48.9524 30.7945 48.9524C34.4781 48.9524 37.762 47.729 37.762 44.0017V43.996ZM33.146 43.6473C33.146 46.4542 32.1556 47.7805 28.7153 47.7805H26.5724V39.9428H28.8543C31.9818 39.9428 33.146 40.989 33.146 43.6473Z" fill="white"/>
<path d="M61.0736 48.9181C59.452 48.9181 57.8361 48.901 56.2202 48.9467V47.8491C56.9557 47.8491 59.0002 47.8091 59.0002 46.8315V34.1518H58.9423L51.6331 49.1868H50.747L43.6174 34.1232H43.5595V46.8315C43.5595 47.8319 45.5808 47.8491 46.3511 47.8491L46.3801 48.9467C44.3587 48.8838 41.6077 48.8381 39.6211 48.9467V47.8491C40.3914 47.8491 42.1289 47.7862 42.1289 46.8315V33.1742C42.1289 32.2367 40.3335 32.1623 39.6211 32.1623L39.5922 31.059C41.8973 31.1562 44.3645 31.1562 46.6638 31.059L52.7857 43.7273L59.0234 31.0819C61.2358 31.1791 63.7378 31.1505 65.9503 31.059V32.1623C65.2147 32.1623 63.2861 32.2138 63.2861 33.1742V46.8315C63.2861 47.8091 65.1916 47.8491 65.9503 47.8491V48.9467C64.3344 48.901 62.6895 48.9181 61.0736 48.9181Z" fill="white"/>
<path d="M82.9895 39.9828C82.9895 43.39 82.6478 48.1521 77.5221 48.1521C72.3965 48.1521 72.02 43.39 72.02 39.9828C72.02 36.5757 72.3907 31.8479 77.5221 31.8479C82.6536 31.8479 82.9895 36.6043 82.9895 39.9828ZM87.7851 39.9828C87.7851 34.066 84.1247 30.7446 77.5164 30.7446C70.908 30.7446 67.2129 34.0317 67.2129 39.9828C67.2129 45.934 70.8733 49.244 77.5164 49.244C84.1595 49.244 87.7851 45.934 87.7851 39.9828Z" fill="white"/>
<path d="M118.475 19.4197C106.967 19.4197 97.6252 28.6351 97.6252 40C97.6252 51.3649 106.961 60.5802 118.475 60.5802C129.989 60.5802 139.326 51.3706 139.326 40C139.326 28.6294 129.989 19.4197 118.475 19.4197Z" fill="#ED1C24"/>
<path d="M117.838 33.723L114.218 29.0639C114.074 28.8752 113.842 28.7495 113.576 28.7495C113.309 28.7495 113.095 28.8638 112.944 29.0467L108.635 34.409V42.8069L112.921 37.3874C113.072 37.1988 113.309 37.073 113.576 37.073C113.842 37.073 114.085 37.1988 114.236 37.3932L117.873 42.0866C118.012 42.2638 118.232 42.3839 118.475 42.3839C118.719 42.3839 118.939 42.2638 119.078 42.0866L122.715 37.3932C122.866 37.1988 123.103 37.073 123.375 37.073C123.647 37.073 123.879 37.1988 124.03 37.3874L128.316 42.8069V34.409L124.006 29.0467C123.862 28.8638 123.63 28.7495 123.375 28.7495C123.12 28.7495 122.877 28.8752 122.732 29.0639L119.112 33.723C118.968 33.9117 118.736 34.0317 118.475 34.0317C118.215 34.0317 117.983 33.9117 117.838 33.723ZM128.316 48.9695H108.641V42.8126H128.316V48.9695Z" fill="white"/>
</g>
<defs>
<clipPath id="clip0_131_6539">
<rect width="159" height="80" fill="white"/>
</clipPath>
</defs>
</svg>
