<svg width="24" height="24" viewBox="0 0 24 24" fill="none" xmlns="http://www.w3.org/2000/svg">
<path d="M22.2571 5.77709C21.1413 4.64846 19.63 4.01378 18.0539 4.01183C16.4778 4.00988 14.9651 4.64082 13.8465 5.76668L12.5036 7.03154L11.1597 5.76252C10.0413 4.63176 8.52582 3.99776 6.9465 4.00001C5.36718 4.00225 3.85342 4.64055 2.73823 5.77449C1.62305 6.90843 0.997792 8.44512 1.00001 10.0465C1.00222 11.6479 1.63173 13.1828 2.75004 14.3136L11.9235 23.7515C11.9999 23.8302 12.091 23.8927 12.1915 23.9354C12.292 23.978 12.3998 24 12.5087 24C12.6176 24 12.7255 23.978 12.8259 23.9354C12.9264 23.8927 13.0175 23.8302 13.0939 23.7515L22.2571 14.3136C23.3731 13.1813 24 11.6461 24 10.0453C24 8.44457 23.3731 6.90933 22.2571 5.77709ZM21.0918 13.1434L12.5036 21.9755L3.9102 13.1351C3.10148 12.3151 2.64715 11.2029 2.64715 10.0432C2.64715 8.88357 3.10148 7.77139 3.9102 6.95138C4.71892 6.13136 5.81577 5.67068 6.95947 5.67068C8.10316 5.67068 9.20002 6.13136 10.0087 6.95138L10.0293 6.9722L11.944 8.77839C12.096 8.92181 12.296 9.00154 12.5036 9.00154C12.7112 9.00154 12.9111 8.92181 13.0631 8.77839L14.9779 6.9722L14.9984 6.95138C15.8077 6.13191 16.9049 5.67199 18.0486 5.67277C19.1923 5.67355 20.2888 6.13497 21.097 6.95554C21.9051 7.77611 22.3587 8.88859 22.358 10.0483C22.3572 11.2079 21.9021 12.3198 21.0929 13.1393L21.0918 13.1434Z" fill="#001928"/>
</svg>
