<svg width="268" height="20" viewBox="0 0 268 20" fill="none" xmlns="http://www.w3.org/2000/svg">
<path d="M20 10.0612C20 4.50453 15.5228 0 10 0C4.47715 0 0 4.50453 0 10.0612C0 15.0829 3.65686 19.2453 8.4375 20V12.9695H5.89843V10.0612H8.4375V7.84456C8.4375 5.32298 9.93042 3.93014 12.2147 3.93014C13.3088 3.93014 14.4532 4.12665 14.4532 4.12665V6.60264H13.1922C11.9499 6.60264 11.5625 7.3782 11.5625 8.17385V10.0612H14.3359L13.8926 12.9695H11.5625V20C16.3432 19.2453 20 15.0829 20 10.0612Z" fill="white"/>
<path d="M78.5189 0C79.3333 0 80 0.645688 80 1.44124V18.5579C79.9999 19.3557 79.3333 20 78.5189 20H61.4746C60.6613 20 60.0001 19.3557 60 18.5579V1.44124C60 0.645688 60.6613 0 61.4746 0H78.5189ZM73.4847 7.26074C72.0413 7.26074 71.0729 8.05208 70.6762 8.80208H70.6364V7.49918H67.793V17.0434H70.7568V12.321C70.7568 11.0755 70.9925 9.87142 72.5358 9.87142C74.0556 9.87158 74.078 11.2947 74.078 12.4023V17.0434H77.041V11.8091C77.041 9.23808 76.4867 7.26086 73.4847 7.26074ZM62.9557 7.5V17.041H65.9342V7.5H62.9557ZM64.4491 2.75309C63.4968 2.75309 62.7279 3.52458 62.7279 4.47347C62.7279 5.42341 63.4969 6.19303 64.4491 6.19303C65.3978 6.19294 66.1685 5.42335 66.1686 4.47347C66.1686 3.52463 65.3979 2.75318 64.4491 2.75309Z" fill="white"/>
<path d="M134.396 0C136.128 0.00848113 143.034 0.0749821 144.939 0.595892C146.144 0.924456 147.093 1.89259 147.415 3.12203C147.929 5.08015 147.991 8.90793 147.999 9.80703L148 9.98682V9.99936C148 9.99936 148 10.0036 148 10.012L147.999 10.1917C147.991 11.0909 147.929 14.9185 147.415 16.877C147.093 18.1062 146.144 19.0744 144.939 19.4031C142.988 19.9366 135.788 19.9933 134.278 19.9993L134.102 19.9999C134.08 20 134.061 20 134.046 20H133.953C133.938 20 133.919 20 133.896 19.9999L133.721 19.9993C133.002 19.9965 130.992 19.9821 128.874 19.9102L128.237 19.8869C126.108 19.8031 123.989 19.6571 123.06 19.4031C121.855 19.0744 120.906 18.1062 120.584 16.877C120.07 14.9185 120.008 11.0909 120 10.1917V9.80703C120.008 8.90793 120.07 5.08015 120.584 3.12203C120.906 1.89259 121.855 0.924456 123.06 0.595892C123.989 0.341789 126.108 0.195823 128.237 0.111958L128.874 0.0886203C130.887 0.0203218 132.801 0.00392711 133.603 0H134.396ZM131.136 5.77834V14.2205L138.454 9.9996L131.136 5.77834Z" fill="white"/>
<path d="M203.338 3.46197C202.675 3.46197 202.138 3.9992 202.138 4.66195C202.138 5.3247 202.675 5.86197 203.338 5.86197C204.001 5.86197 204.538 5.3247 204.538 4.66195C204.538 3.9992 204.001 3.46197 203.338 3.46197ZM198 13.3333C196.159 13.3333 194.667 11.8409 194.667 10C194.667 8.15904 196.159 6.66663 198 6.66663C199.841 6.66663 201.333 8.15904 201.333 10C201.333 11.8409 199.841 13.3333 198 13.3333ZM198 4.86482C195.164 4.86482 192.865 7.16392 192.865 10C192.865 12.836 195.164 15.1351 198 15.1351C200.836 15.1351 203.135 12.836 203.135 10C203.135 7.16392 200.836 4.86482 198 4.86482ZM198 0C195.284 0 194.944 0.0114718 193.877 0.060138C192.813 0.108725 192.086 0.277747 191.45 0.524967C190.792 0.780524 190.234 1.12242 189.678 1.67838C189.122 2.23432 188.781 2.79203 188.525 3.44958C188.278 4.08569 188.109 4.81259 188.06 5.87702C188.012 6.94358 188 7.28412 188 10C188 12.7158 188.012 13.0563 188.06 14.1229C188.109 15.1873 188.278 15.9142 188.525 16.5504C188.781 17.2079 189.122 17.7657 189.678 18.3216C190.234 18.8776 190.792 19.2194 191.45 19.475C192.086 19.7222 192.813 19.8912 193.877 19.9398C194.944 19.9885 195.284 20 198 20C200.716 20 201.056 19.9885 202.123 19.9398C203.187 19.8912 203.914 19.7222 204.55 19.475C205.208 19.2194 205.766 18.8776 206.322 18.3216C206.878 17.7657 207.219 17.208 207.475 16.5504C207.722 15.9142 207.891 15.1873 207.94 14.1229C207.988 13.0563 208 12.7158 208 10C208 7.28417 207.988 6.94358 207.94 5.87702C207.891 4.81259 207.722 4.08569 207.475 3.44958C207.219 2.79203 206.878 2.23432 206.322 1.67838C205.766 1.12242 205.208 0.780524 204.55 0.524967C203.914 0.277747 203.187 0.108725 202.123 0.060138C201.056 0.0114718 200.716 0 198 0ZM198 1.8018C200.67 1.8018 200.986 1.81196 202.041 1.86007C203.016 1.90457 203.545 2.06748 203.898 2.20438C204.364 2.38579 204.698 2.60252 205.048 2.95244C205.398 3.30235 205.614 3.63551 205.796 4.10225C205.932 4.45462 206.095 4.98415 206.14 5.9591C206.188 7.0136 206.198 7.32985 206.198 10C206.198 12.6701 206.188 12.9863 206.14 14.0408C206.095 15.0158 205.932 15.5453 205.796 15.8977C205.614 16.3644 205.398 16.6976 205.048 17.0475C204.698 17.3974 204.364 17.6142 203.898 17.7956C203.545 17.9325 203.016 18.0954 202.041 18.1399C200.987 18.188 200.67 18.1982 198 18.1982C195.33 18.1982 195.013 18.188 193.959 18.1399C192.984 18.0954 192.455 17.9325 192.102 17.7956C191.636 17.6142 191.302 17.3974 190.952 17.0475C190.603 16.6976 190.386 16.3644 190.204 15.8977C190.067 15.5453 189.905 15.0158 189.86 14.0408C189.812 12.9863 189.802 12.6701 189.802 10C189.802 7.32985 189.812 7.0136 189.86 5.95914C189.905 4.98415 190.067 4.45462 190.204 4.10225C190.386 3.63551 190.603 3.30235 190.952 2.95247C191.302 2.60252 191.636 2.38579 192.102 2.20438C192.455 2.06748 192.984 1.90457 193.959 1.86007C195.014 1.81196 195.33 1.8018 198 1.8018Z" fill="white"/>
<path d="M259.903 8.4686L267.348 0H265.584L259.119 7.35325L253.955 0H248L255.808 11.1193L248 20H249.764L256.592 12.2348L262.045 20H268L259.903 8.4686ZM257.486 11.2172L256.695 10.11L250.4 1.29961H253.11L258.19 8.4099L258.981 9.517L265.585 18.7593H262.875L257.486 11.2172Z" fill="white"/>
</svg>
